<?xml version="1.0" encoding="UTF-8"?>
<svg width="1024" height="1024" viewBox="0 0 1024 1024" xmlns="http://www.w3.org/2000/svg">
    <!-- 方形背景 -->
    <rect width="1024" height="1024" fill="#4A90E2"/>
    
    <!-- 主云朵 -->
    <path d="M384 512c0-70.4 57.6-128 128-128 32 0 60.8 12.8 83.2 32 22.4-19.2 51.2-32 83.2-32 70.4 0 128 57.6 128 128 0 70.4-57.6 128-128 128H512c-70.4 0-128-57.6-128-128z" fill="white" opacity="0.95"/>
    
    <!-- 小云朵 -->
    <circle cx="320" cy="448" r="48" fill="white" opacity="0.9"/>
    <circle cx="704" cy="448" r="48" fill="white" opacity="0.9"/>
    
    <!-- 云朵高光 -->
    <path d="M384 512c0-70.4 57.6-128 128-128 32 0 60.8 12.8 83.2 32 22.4-19.2 51.2-32 83.2-32 70.4 0 128 57.6 128 128 0 70.4-57.6 128-128 128H512c-70.4 0-128-57.6-128-128z" fill="white" opacity="0.1" transform="translate(0, -20)"/>
</svg> 